<svg width="526" height="526" viewBox="0 0 526 526" fill="none" xmlns="http://www.w3.org/2000/svg">
<path d="M207.673 96.5057C244.102 95.7974 281.677 96.6276 318.27 96.3295C318.142 100.523 318.198 104.165 318.327 108.363C321.415 108.88 327.46 108.762 330.812 108.789C330.654 112.817 330.657 116.747 330.655 120.778C337.777 121.34 348.575 121.018 355.971 121.006C355.817 125.384 355.801 128.619 356.017 132.987C359.29 133.442 364.773 133.371 368.24 133.421C368.091 137.478 368.148 141.43 368.192 145.486C371.858 145.994 376.773 145.827 380.576 145.807C380.164 150.059 380.203 153.489 380.427 157.725C383.708 158.158 389.292 157.985 392.775 157.973C392.71 162.282 392.645 165.912 392.969 170.196C396.19 170.466 401.75 170.291 405.145 170.285C405.154 178.339 405.123 186.395 405.051 194.449C408.344 194.952 413.919 194.752 417.428 194.727L417.345 219.559C413.158 219.215 408.949 219.249 404.768 219.661C405.088 211.481 405.072 202.924 405.167 194.712C400.945 194.601 396.801 194.698 392.583 194.778C393.015 187.598 392.841 177.422 392.597 170.175C388.409 170.054 384.52 170.108 380.329 170.193C380.558 166.135 380.51 162.171 380.491 158.112C376.558 157.645 372.113 157.826 368.14 157.918C368.354 153.951 368.249 149.832 368.205 145.848C364.327 145.411 359.782 145.555 355.826 145.575C355.951 141.523 355.894 137.663 355.829 133.608C351.244 132.921 336.008 133.318 330.622 133.354C330.897 128.89 330.803 125.713 330.569 121.254C326.894 120.811 322.016 120.917 318.217 120.899C318.386 116.848 318.244 112.971 318.127 108.926C310.064 108.407 301.884 108.975 293.689 108.518C293.912 112.57 294.031 116.627 294.045 120.685C298.011 120.613 302.234 120.87 306.219 121.041C306.04 124.735 306.148 129.231 306.141 132.985C309.46 133.309 314.993 133.213 318.481 133.255C318.344 136.924 317.946 154.843 318.89 157.367C321.112 158.263 328.072 157.914 330.711 157.88L330.491 182.129C334.219 182.478 339.782 182.363 343.66 182.39C343.74 190.871 343.726 199.354 343.619 207.834C355.335 207.266 368.794 207.354 380.475 207.778C380.477 211.742 380.529 215.706 380.63 219.668C369.232 219.231 354.286 220.139 343.606 219.178C344.391 250.991 343.023 283.309 343.676 315.175C343.781 320.318 343.882 326.06 343.669 331.174C348.643 331.089 377.783 331.389 380.481 330.536C381.011 333.944 380.228 339.413 380.697 343.773C369.383 343.691 354.844 344.154 343.86 343.603C343.749 349.728 343.29 362.289 343.902 368.196L330.689 368.181C330.608 376.097 330.479 385.059 330.581 392.95C326.451 392.958 322.322 392.931 318.193 392.869C318.181 396.334 318.327 401.81 318.064 405.113C325.205 405.16 336.896 405.571 343.673 404.973L343.635 392.692C347.812 392.828 351.439 392.798 355.621 392.688L355.915 392.964C355.662 397.567 355.607 400.414 355.917 405.018L343.7 405.043C343.619 409.411 343.551 412.955 343.881 417.294C331.683 417.42 317.966 417.08 305.991 417.493C305.994 421.055 305.852 426.261 306.14 429.687C289.126 429.553 272.11 429.518 255.095 429.582C243.986 429.583 230.783 429.266 219.847 429.692C219.849 427.014 220.228 419.678 218.789 417.918C214.848 416.814 188.289 417.331 182.164 417.213C182.382 413.145 182.469 409.072 182.423 404.998C184.822 405.441 203.708 405.115 207.63 405.09C207.192 401.477 207.462 396.83 207.647 393.203L195.479 392.864C195.241 385.037 195.009 376.525 195.275 368.734C190.553 368.599 187.096 368.224 182.225 368.397C182.464 360.439 182.348 351.857 182.386 343.85C172.925 343.231 155.496 343.756 145.61 343.988L145.5 330.818C148.988 331.334 156.233 331.114 160.075 331.105C167.461 331.077 174.847 331.127 182.232 331.255C182.173 327.891 182.278 324.317 182.32 320.936C182.735 287.126 181.919 253.199 182.446 219.4C175.275 219.346 151.751 219.109 145.612 219.991C145.351 217.695 145.617 210.371 145.651 207.706C156.318 207.536 172.129 206.95 182.437 207.781C182.025 200.406 182.343 189.969 182.367 182.346C186.899 182.382 190.532 182.309 195.037 181.963L195.026 207.866C210.939 207.205 227 207.523 242.928 207.413C247.5 207.382 252.192 207.386 256.747 207.682C256.291 203.294 256.503 196.762 256.529 192.207L256.614 167.015L256.536 131.916C256.519 124.443 256.333 116.025 256.902 108.636C252.738 108.728 248.333 108.661 244.147 108.668C244.033 112.804 243.864 116.921 244.083 121.054C240.592 120.81 235.784 120.987 232.188 121.023C231.689 125.103 231.718 129.231 232.276 133.303C228.087 133.329 223.897 133.293 219.708 133.193L219.673 121.08C223.59 121.068 228.201 121.165 232.039 120.805C232.026 116.755 232.111 112.705 232.295 108.66C224.158 108.645 215.534 108.501 207.444 108.818C207.311 112.863 207.12 117.003 207.247 121.041C203.168 121.015 199.194 120.961 195.115 121.184C194.971 125.281 194.827 129.347 195.278 133.434C188.587 133.278 176.998 133.011 170.322 133.348C169.902 137.834 170.031 141.068 170.176 145.596L158.022 145.577C157.763 150.065 157.747 153.344 157.875 157.844C144.839 157.456 144.999 156.665 145.633 170.164C141.557 170.086 137.48 170.059 133.403 170.083C133.31 176.632 132.945 188.555 133.472 194.684C129.96 194.673 124.468 194.5 121.122 194.798C120.768 201.119 121.729 215.394 121.144 219.841C129.119 219.679 137.642 219.502 145.612 219.991C145.864 220.833 145.582 229.254 145.8 231.878C138.812 231.639 127.779 231.66 120.913 231.997L120.86 219.592C116.856 219.406 112.845 219.358 108.837 219.451C108.453 247.084 108.863 274.796 108.707 302.436C108.654 311.823 108.695 321.283 108.972 330.664C104.98 330.406 100.243 330.498 96.1875 330.482C96.9226 313.45 96.4667 293.668 96.4746 276.371C96.4829 258.263 96.9121 238.073 96.2129 220.16C99.6604 219.761 105.188 220.505 108.094 219.211C109.187 217.312 108.714 198.32 108.693 194.713C112.759 194.871 116.947 194.722 121.025 194.633C121.059 186.478 121.014 178.324 120.891 170.17C125.187 170.311 128.898 170.158 133.202 169.97C133.275 165.774 133.302 162.065 133.125 157.878C136.876 158.145 141.778 157.899 145.629 157.804C145.539 153.855 145.687 149.439 145.735 145.454C149.992 146.005 153.608 145.753 157.873 145.611L157.834 133.342C162.137 133.478 165.742 133.406 170.052 133.248L170.201 120.986C176.297 121.277 189.247 121.211 195.114 120.805L195.277 108.86C199.429 108.658 203.208 108.785 207.534 108.463C207.702 104.706 207.635 100.314 207.673 96.5057ZM195.124 331.1C198.847 331.13 202.571 331.124 206.293 331.082C222.106 331.001 237.914 330.856 253.724 331.192C254.75 331.213 255.773 331.233 256.795 331.327C256.256 324.663 256.506 315.482 256.516 308.579L256.572 270.405L256.514 238.396C256.503 233.062 256.28 224.674 256.791 219.488C253.617 219.439 250.216 219.328 247.061 219.372L213.06 219.52C207.893 219.537 200.065 219.786 195.076 219.471L195.194 299.139C195.184 309.522 194.928 320.782 195.124 331.1ZM330.824 330.981C331.094 321.681 330.797 311.895 330.765 302.54L330.685 251.891C330.678 244.227 330.208 226.394 331.023 219.639C317.03 219.526 303.037 219.495 289.044 219.547C283.879 219.552 273.908 219.901 269.157 219.43C269.6 228.669 269.619 238.887 269.427 248.146C268.858 275.595 270.414 303.945 269.078 331.293C289.591 330.669 310.618 331.618 330.824 330.981ZM219.357 417.211C231.6 417.474 244.937 416.963 256.884 417.435C256.136 411.662 256.411 393.953 256.522 387.29C256.752 373.532 256.068 357.174 256.912 343.69L217.475 343.893C211.118 343.94 201.006 344.545 194.953 343.466C194.995 351.621 194.933 359.777 194.768 367.931C198.996 368.13 203.228 368.243 207.46 368.271L207.267 392.58C211.348 392.654 215.43 392.698 219.513 392.715C219.545 400.775 219.68 409.167 219.357 417.211ZM306.378 417.054C306.297 409.05 306.26 401.046 306.267 393.042C310.091 392.4 314.434 392.828 318.473 392.458C318.404 384.512 318.219 376.233 318.36 368.314C322.444 368.293 326.409 368.295 330.492 368.033C331.18 360.024 330.562 351.811 331.132 343.638L289.663 343.73C283.615 343.721 275.113 343.942 269.219 343.526C269.464 357.092 269.544 370.66 269.46 384.229C269.454 394.974 269.609 406.767 269.135 417.448L306.378 417.054ZM305.937 133.769C301.51 133.238 298.257 133.295 293.793 133.44C293.813 129.393 293.905 125.104 293.679 121.085C289.633 120.99 285.585 120.977 281.538 121.047C281.565 116.913 281.715 112.781 281.989 108.656C277.965 108.636 273.186 108.733 269.225 108.532C269.692 128.838 269.305 149.878 269.417 170.276C269.471 179.965 269.973 198.712 269.072 207.85C289.695 207.337 310.326 207.255 330.952 207.607C331.293 200.702 330.775 189.963 330.665 182.796C326.659 182.292 322.458 182.416 318.408 182.441C318.52 175.178 318.622 165.399 318.328 158.134C314.14 157.798 310.245 157.845 306.059 157.861C306.098 149.92 306.247 141.676 305.937 133.769Z" fill="#2A343E"/>
<path d="M417.333 219.57C421.512 220.108 425.43 219.624 429.619 219.873L429.653 330.519L416.562 330.484C417.767 319.293 417.391 306.132 417.391 294.663L417.359 241.9C417.352 236.226 416.95 224.683 417.333 219.57Z" fill="#2A343E"/>
<path d="M207.673 133.349C211.565 133.257 215.845 133.071 219.704 133.201C219.185 139.327 219.272 151.807 219.676 158.01C215.445 157.796 211.791 157.852 207.568 158C207.273 162.424 207.157 178.451 207.687 182.418C203.626 182.381 199.449 182.455 195.378 182.477C194.881 175.137 195.297 165.401 195.437 157.867C199.539 157.804 203.64 157.651 207.735 157.408C207.114 150.785 207.485 140.122 207.673 133.349Z" fill="#2A343E"/>
<path d="M380.507 318.45C386.751 318.471 399.273 318.123 405.142 318.667C405.119 322.601 404.977 327.069 405.393 330.932C409.581 331.139 413.788 331.089 417.878 331.301C417.149 335.201 417.297 339.796 417.273 343.819C413.105 343.909 409.452 344.055 405.288 343.603L405.14 343.372C405.395 339.738 405.151 334.534 405.077 330.779C397.448 330.281 388.46 330.797 380.474 330.546C380.059 328.398 380.431 321.036 380.507 318.45Z" fill="#2A343E"/>
<path d="M146.438 368.314C150.059 368.319 154.304 368.224 157.847 368.588C157.796 370.651 157.772 372.82 157.731 374.876C157.638 379.584 158.407 380.671 163.16 380.639C165.479 380.606 167.798 380.553 170.116 380.479C170.091 384.396 170.005 388.482 170.102 392.385C173.844 393.021 178.597 392.827 182.473 392.798C182.324 397.12 182.281 400.693 182.423 405.009C178.318 405.063 174.147 405.036 170.036 405.048C170.154 401.021 170.183 396.916 170.252 392.881C166.16 392.684 162.059 392.737 157.973 393.039C157.952 388.864 157.964 384.689 158.011 380.514C153.927 380.469 149.628 380.328 145.586 380.757L145.718 368.289L146.438 368.314Z" fill="#2A343E"/>
<path d="M108.281 330.907C111.819 331.265 117.647 331.536 120.988 330.457C121.261 334.605 120.66 338.995 120.888 343.306C124.747 343.795 129.555 343.695 133.521 343.715C133.356 346.748 132.799 353.24 133.822 355.97L133.33 356.222C130.506 355.55 123.942 355.908 120.988 356.04L121.116 343.804C116.735 343.724 113.216 343.647 108.87 344.065C108.552 339.576 109.042 335.639 108.281 330.907Z" fill="#2A343E"/>
<path d="M380.617 219.672C388.403 220.262 396.698 219.36 405.524 220.064C404.954 224.113 404.984 227.459 405.107 231.549C403.226 232.162 384.733 231.682 380.372 232.051C380.376 229.999 380.268 221.117 380.617 219.672Z" fill="#2A343E"/>
<path d="M120.9 318.504C129.01 318.809 136.778 318.263 145.202 318.66C146.021 320.488 145.483 327.688 145.859 330.62C137.498 330.303 129.206 330.759 120.982 330.453C120.533 328.162 121.025 321.428 120.9 318.504Z" fill="#2A343E"/>
<path d="M355.911 380.406C359.548 380.646 364.163 380.47 367.883 380.423L368.182 380.676C368.166 384.301 368.007 389.334 368.279 392.838C365.435 392.823 358.429 392.647 355.919 392.974L355.625 392.699C356.189 391.117 355.94 382.685 355.911 380.406Z" fill="#2A343E"/>
<path d="M405.155 343.371L405.303 343.603C404.804 347.013 404.971 352.355 405.074 355.911C401.109 355.886 396.883 355.782 392.942 355.85L392.641 355.745C392.905 351.832 392.752 347.44 392.696 343.48C396.293 343.686 401.649 343.759 405.155 343.371Z" fill="#2A343E"/>
<path d="M133.815 355.969C137.263 356.022 142.462 355.891 145.691 356.153C145.575 359.101 144.813 366.089 146.434 368.314L145.715 368.289C141.952 367.936 136.954 368.129 133.195 368.287L133.323 356.221L133.815 355.969Z" fill="#2A343E"/>
<path d="M392.635 355.742L392.936 355.847C392.626 360.002 392.588 364.172 392.823 368.332C390.159 368.274 382.662 367.97 380.415 368.393L380.172 368.17C380.759 366.401 380.533 358.308 380.51 355.919C384.722 356.035 388.44 356.156 392.635 355.742Z" fill="#2A343E"/>
<path d="M368.204 368.387L380.158 368.176L380.401 368.399C380.297 371.552 380.009 377.603 380.525 380.558C377.808 380.484 370.377 380.168 368.167 380.679L367.867 380.425C368.394 378.143 368.221 371.131 368.204 368.387Z" fill="#2A343E"/>
</svg>
