<svg width="324" height="298" viewBox="0 0 324 298" fill="none" xmlns="http://www.w3.org/2000/svg">
<path d="M50.839 0.331471C60.545 0.0817054 117.628 -0.572377 123.112 1.15119C124.079 3.13529 123.707 21.3014 123.746 24.6586C129.38 25.4255 142.193 25.1661 148.529 25.3052C149.228 32.6332 148.23 41.7466 149.092 49.2823C155.039 49.715 169.483 49.6887 175.118 49.0677C174.916 41.6704 174.942 32.6048 175.157 25.229C179.024 24.9849 196.738 26.0832 198.61 24.733C199.433 24.139 199.731 23.1097 199.861 22.1552C200.206 19.6357 199.828 16.7826 199.81 14.2166C199.753 9.58644 199.843 4.95591 200.076 0.331471L247.478 0.35266C253.253 0.3408 268.135 -0.0182014 272.871 0.811595C274.003 2.91933 273.446 20.9122 273.705 25.1305C278.999 25.4518 284.713 24.9127 290.039 25.1046C292.658 25.1988 295.648 24.3873 297.78 26.0882C299.343 28.7361 298.48 44.7797 298.624 49.191C304.597 50.111 318.343 48.6505 322.526 49.9151C323.665 51.3882 323.177 84.3084 323.169 89.1661C323.256 108.873 323.223 128.581 323.065 148.286C316.891 148.319 304.187 147.431 298.624 148.402C298.674 156.556 298.552 164.706 298.25 172.857C290.013 172.462 281.324 173.374 273.572 173.011C273.367 180.968 273.921 189.557 273.27 197.445C267.312 197.082 255.018 197.28 249.303 198.218C246.051 198.754 249.551 219.813 247.934 223.727L247 223.831C239.539 224.136 231.169 223.64 223.953 224.197L223.641 248.268C215.361 248.635 207.009 248.426 198.682 248.667C198.581 256.965 198.768 265.022 198.441 273.338C191.308 273.421 184.239 273.295 177.123 273.248C172.103 273.216 173.508 281.618 173.547 285.032C173.565 289.129 173.551 293.226 173.508 297.323C165.738 297.765 157.623 297.413 149.753 297.718C149.573 289.463 149.898 281.37 149.495 272.986C142.006 273.446 132.613 273.349 125.048 273.381C125.076 267.132 125.469 254.036 124.776 248.469C118.031 247.499 107.951 249.084 100.115 248.265C99.8297 240.459 100.05 231.723 99.9911 223.82C91.3485 223.867 83.471 223.842 74.8323 223.45C75.2247 217.013 75.0602 204.202 74.7187 197.751C66.9164 197.33 58.3248 197.751 50.3003 197.463C49.7332 189.492 50.0653 181.421 50.2697 173.428C44.4004 172.314 31.6419 172.742 25.4067 173.119C24.6769 166.507 25.4089 155.722 25.0513 148.351C23.3037 148.107 21.6351 148.139 19.8796 148.182C13.252 148.34 6.62723 148.531 0 148.286L0.106382 49.3265C6.08315 49.6701 19.1662 49.7161 25.0779 49.3703C25.267 44.4724 24.6689 29.1907 25.6856 25.8248C28.5326 23.941 45.4451 26.4152 48.5717 25.0392C51.5872 23.712 49.4072 4.73992 50.839 0.331471ZM224.021 49.5719C232.212 49.6826 240.506 49.3703 248.642 49.7811C247.65 53.2236 247.295 73.1556 249.498 75.7398C250.993 76.0927 272.066 76.6117 273.888 76.3335C275.293 71.3713 274.701 54.7768 274.625 48.9409C271.225 48.3573 254.148 48.4449 249.961 48.6584C249.882 41.9597 250.335 30.1053 249.911 23.9927C244.078 23.3336 238.008 23.7332 232.143 23.6488C230.012 23.6182 226.073 23.7483 224.09 23.3049C223.684 30.7587 223.597 42.0384 224.021 49.5719Z" fill="#2A343E"/>
</svg>
