<svg width="200" height="200" viewBox="0 0 200 200" fill="none" xmlns="http://www.w3.org/2000/svg">
  <title>Open Source</title>
  <!-- Pixel art heart -->
  <rect x="60" y="40" width="20" height="20" fill="#2A343E"/>
  <rect x="80" y="40" width="20" height="20" fill="#2A343E"/>
  <rect x="100" y="40" width="20" height="20" fill="#2A343E"/>
  <rect x="120" y="40" width="20" height="20" fill="#2A343E"/>
  <rect x="40" y="60" width="20" height="20" fill="#2A343E"/>
  <rect x="60" y="60" width="20" height="20" fill="#2A343E"/>
  <rect x="80" y="60" width="20" height="20" fill="#2A343E"/>
  <rect x="100" y="60" width="20" height="20" fill="#2A343E"/>
  <rect x="120" y="60" width="20" height="20" fill="#2A343E"/>
  <rect x="140" y="60" width="20" height="20" fill="#2A343E"/>
  <rect x="40" y="80" width="20" height="20" fill="#2A343E"/>
  <rect x="60" y="80" width="20" height="20" fill="#2A343E"/>
  <rect x="80" y="80" width="20" height="20" fill="#2A343E"/>
  <rect x="100" y="80" width="20" height="20" fill="#2A343E"/>
  <rect x="120" y="80" width="20" height="20" fill="#2A343E"/>
  <rect x="140" y="80" width="20" height="20" fill="#2A343E"/>
  <rect x="60" y="100" width="20" height="20" fill="#2A343E"/>
  <rect x="80" y="100" width="20" height="20" fill="#2A343E"/>
  <rect x="100" y="100" width="20" height="20" fill="#2A343E"/>
  <rect x="120" y="100" width="20" height="20" fill="#2A343E"/>
  <rect x="80" y="120" width="20" height="20" fill="#2A343E"/>
  <rect x="100" y="120" width="20" height="20" fill="#2A343E"/>
  <rect x="100" y="140" width="20" height="20" fill="#2A343E"/>
</svg>
