<svg width="341" height="450" viewBox="0 0 341 450" fill="none" xmlns="http://www.w3.org/2000/svg">
<g clip-path="url(#clip0_8014_2501)">
<path d="M0 0H27.364H313.655H341V27.358V381.675V450H327.125H13.4143H0V381.647V27.3783V0Z" fill="#8EB1D2"/>
<path d="M27.364 0H313.655H341V27.358V381.675V450H327.125H13.4143H0V381.647V27.3783C2.42302 27.37 11.4792 27.1733 13.4798 27.4293L13.4838 381.51C27.6245 381.705 42.0475 381.573 56.2057 381.575L132.314 381.578L327.045 381.538L327.035 27.4683L313.522 27.4772L313.552 13.4738L27.4373 13.4592C27.1673 11.1869 27.3745 2.82912 27.364 0Z" fill="#2A343E"/>
<path d="M327.103 381.684C330.785 381.419 337.18 381.609 341 381.676V450.001H327.125C326.933 442.459 327.095 434.216 327.095 426.631L327.103 381.684Z" fill="#8EB1D2"/>
<path d="M0 381.647C4.48707 381.645 8.9741 381.617 13.4608 381.562L13.4143 450H0V381.647Z" fill="#8EB1D2"/>
<path d="M313.657 0H341.002V27.358C336.592 27.4992 331.542 27.3723 327.054 27.3913C327.112 22.7143 327.127 18.0369 327.102 13.3597C323.147 13.5884 317.827 13.3413 313.602 13.4445C313.582 8.9629 313.599 4.48125 313.657 0Z" fill="#8EB1D2"/>
<path d="M27.4141 395.535L313.665 395.54C313.44 408.923 313.617 422.833 313.59 436.25C312.932 436.805 277.01 436.588 273.487 436.588L198.903 436.59L27.4198 436.538L27.4141 395.535Z" fill="#8EB1D2"/>
<path d="M0 0H27.364C27.3745 2.82912 27.1673 11.1869 27.4373 13.4592C27.481 18.1336 27.4968 22.8082 27.4845 27.4827C23.0758 27.4775 17.8184 27.6083 13.4798 27.4293C11.4792 27.1733 2.42302 27.37 0 27.3783V0Z" fill="#8EB1D2"/>
<path d="M13.404 13.3242C18.0425 13.5025 22.8508 13.1972 27.4387 13.4581C27.4825 18.1325 27.4982 22.8071 27.486 27.4817C23.0773 27.4764 17.8199 27.6072 13.4813 27.4282C13.2637 23.1188 13.4036 17.7157 13.404 13.3242Z" fill="#2A343E"/>
<path d="M54.3252 40.8359L286.211 40.8519L286.153 54.3597C290.701 54.2442 295.708 54.5389 300.196 54.2914L300.171 245.252L286.191 245.253C286.068 249.756 286.183 254.724 286.196 259.261L54.3137 259.281L54.392 245.24L40.8762 245.258C40.4547 223.044 40.842 199.663 40.8442 177.362L40.848 54.3422C44.7437 54.3339 50.7327 54.1394 54.4522 54.4354C54.18 52.7127 54.3322 43.1764 54.3252 40.8359Z" fill="#8EB1D2"/>
<path d="M54.3252 40.8359L286.211 40.8519L286.153 54.3597C290.701 54.2442 295.708 54.5389 300.196 54.2914L300.171 245.252L286.191 245.253C286.068 249.756 286.183 254.724 286.196 259.261L54.3137 259.281L54.392 245.24L40.8762 245.258C40.4547 223.044 40.842 199.663 40.8442 177.362L40.848 54.3422C44.7437 54.3339 50.7327 54.1394 54.4522 54.4354L54.45 245.179C61.8312 245.487 71.538 245.205 79.0637 245.205L127.741 245.203L286.091 245.224L286.098 54.4377L54.4522 54.4354C54.18 52.7127 54.3322 43.1764 54.3252 40.8359Z" fill="#2A343E"/>
<path d="M163.754 95.2812C168.201 95.3542 172.833 95.2887 177.294 95.2897L177.295 177.395C172.821 177.231 167.887 177.316 163.378 177.31L149.757 177.318L149.742 163.748L163.742 163.742L163.754 95.2812Z" fill="#2A343E"/>
<path d="M122.762 190.727L136.318 190.743L136.33 204.714C154.17 204.922 173.06 204.29 190.742 204.789L190.765 218.276L136.248 218.295L136.239 204.817C134.488 204.769 123.429 205.039 122.742 204.616L122.762 190.727Z" fill="#2A343E"/>
<path d="M108.783 95.2812L122.896 95.2995C122.651 104.279 122.861 113.851 122.872 122.878L108.766 122.912L108.783 95.2812Z" fill="#2A343E"/>
<path d="M204.737 95.2422C208.389 95.4877 214.426 95.2992 218.258 95.3007L218.257 122.954C213.742 122.883 209.226 122.886 204.711 122.964L204.737 95.2422Z" fill="#2A343E"/>
<path d="M190.705 190.722L204.77 190.715L204.759 204.79C201.014 204.798 194.24 205.035 190.746 204.787C190.686 200.099 190.672 195.41 190.705 190.722Z" fill="#2A343E"/>
<path d="M204.715 313.59C208.38 313.677 212.132 313.68 215.801 313.652C239.248 313.472 262.776 313.932 286.216 313.617C286.113 318.022 286.191 322.732 286.188 327.162C284.968 327.355 279.786 327.262 278.268 327.26L261.871 327.227L204.695 327.225C204.849 322.965 204.718 317.912 204.715 313.59Z" fill="#2A343E"/>
<path d="M40.8444 327.059C43.3757 327.216 47.2842 327.111 49.9004 327.116L68.4559 327.089C68.4217 331.791 68.4262 336.494 68.4692 341.196C59.5102 341.396 49.8547 341.216 40.8399 341.216C40.7452 336.596 40.8349 331.699 40.8444 327.059Z" fill="#2A343E"/>
</g>
<defs>
<clipPath id="clip0_8014_2501">
<rect width="341" height="450" fill="white"/>
</clipPath>
</defs>
</svg>
